<svg width="192" height="192" viewBox="0 0 192 192" fill="none" xmlns="http://www.w3.org/2000/svg">
<g clip-path="url(#clip0_873_57)">
<rect width="192" height="192" rx="20" fill="url(#paint0_linear_873_57)"/>
<path fill-rule="evenodd" clip-rule="evenodd" d="M129.994 44.235C126.326 44.6561 126.227 44.7111 128.94 44.8197C132.467 44.9605 139.311 46.8699 139.944 47.8903C140.223 48.3407 139.676 48.3334 138.455 47.8712C135.268 46.6638 126.849 47.0225 121.789 48.5806C112.436 51.4605 103.421 59.063 97.402 69.1464C93.536 75.6221 79.4981 102.933 72.5472 117.5C68.266 126.474 62.6146 133.699 59.8765 133.699C58.5034 133.699 58.5498 133.529 60.4316 131.681C64.3227 127.86 69.0044 119.676 77.2275 102.32C81.762 92.7491 87.0166 82.1119 88.9036 78.6825C98.4961 61.2504 108.983 50.6631 120.871 46.4085C123.553 45.4491 124.269 45.0104 122.746 45.2598C118.406 45.9713 111.34 49.8599 106.567 54.1636C98.8237 61.1455 92.7725 69.8792 81.843 89.8486L79.1439 94.7795L75.3037 93.184C68.3978 90.3144 48.1695 91.2152 49.2164 94.3453C49.3622 94.7803 48.2453 96.763 46.7346 98.7517C40.277 107.252 39.9633 120.064 46.0565 126.445C47.9737 128.454 49.3983 129.297 50.8715 129.297H52.9639L50.9017 127.153C47.8139 123.941 47.5223 119.468 50.0631 114.293C52.7563 108.808 55.445 107.024 61.5367 106.681C64.7629 106.499 67.2647 106.783 69.0663 107.532L71.7631 108.655L67.5415 116.409C65.2194 120.674 62.2568 125.286 60.9573 126.659C58.3679 129.394 53.1818 131.498 49.0324 131.498C45.2216 131.498 40.1629 128.689 37.8039 125.263C35.4509 121.846 33.2819 114.041 33.6979 110.491C34.1919 106.276 32.8439 108.952 31.6858 114.485C29.6545 124.19 32.2969 137.006 37.4852 142.612C41.5463 147 44.0959 148.001 51.2161 148C56.6944 147.999 58.0123 147.728 61.7944 145.82C69.533 141.917 78.1161 132.028 83.6107 120.684C84.6231 118.594 85.6435 116.871 85.8776 116.856C86.1125 116.84 88.9286 118.318 92.1357 120.141C102.537 126.053 111.009 128.573 120.393 128.546C130.239 128.519 137.058 125.228 146.228 116.079C156.404 105.924 161.063 94.4766 160.999 79.7828C160.943 67.0374 157.25 57.3634 149.822 50.5113C143.993 45.1344 138.18 43.2946 129.994 44.235ZM134.595 49.8709C133.28 50.0337 131.126 50.0337 129.81 49.8709C128.494 49.7088 129.571 49.5753 132.203 49.5753C134.835 49.5753 135.911 49.7088 134.595 49.8709ZM124.8 51.1377C113.287 55.3637 104.304 64.3005 95.3685 80.4188C93.2165 84.3008 91.3251 87.3465 91.1653 87.188C90.7788 86.8022 97.8357 74.2937 101.511 68.85C105.391 63.1019 108.773 59.4452 113.206 56.2029C116.91 53.4939 124.293 50.0807 126.313 50.143C126.92 50.1621 126.239 50.6096 124.8 51.1377ZM142.311 51.2507C142.066 51.4942 141.431 51.5206 140.9 51.3087C140.312 51.0746 140.487 50.9008 141.345 50.8656C142.121 50.834 142.555 51.0072 142.311 51.2507ZM128.261 67.7827C141.538 71.1137 144.248 96.708 132.557 108.356C124.886 116 114.881 115.697 101.106 107.408C92.9389 102.492 92.7107 102.199 94.189 98.517C98.6617 87.3802 104.993 76.6484 109.878 71.9287C114.199 67.7534 121.542 66.097 128.261 67.7827ZM106.25 111.968C109.886 113.802 111.26 115.378 109.195 115.345C106.045 115.295 90.8738 105.467 91.487 103.875C91.7344 103.234 93.5095 104.055 97.1163 106.478C100.014 108.425 104.124 110.896 106.25 111.968Z" fill="white"/>
</g>
<defs>
<linearGradient id="paint0_linear_873_57" x1="192" y1="192" x2="0" y2="0" gradientUnits="userSpaceOnUse">
<stop offset="0.0410267" stop-color="#16A249"/>
<stop offset="0.697115" stop-color="#06A0FF"/>
</linearGradient>
<clipPath id="clip0_873_57">
<rect width="192" height="192" rx="20" fill="white"/>
</clipPath>
</defs>
</svg>
