<svg width="411" height="327" viewBox="0 0 411 327" fill="none" xmlns="http://www.w3.org/2000/svg">
<path fill-rule="evenodd" clip-rule="evenodd" d="M312.53 0.738962C300.95 2.06279 300.636 2.23576 309.202 2.5771C320.338 3.01991 341.945 9.02326 343.942 12.2313C344.825 13.6474 343.096 13.6244 339.242 12.1714C329.182 8.37518 302.603 9.50297 286.625 14.4016C257.099 23.4562 228.637 47.3589 209.635 79.0615C197.43 99.4217 153.111 185.288 131.167 231.089C117.651 259.303 99.8092 282.017 91.1649 282.017C86.8299 282.017 86.9764 281.485 92.9174 275.675C105.202 263.661 119.982 237.93 145.943 183.362C160.259 153.27 176.848 119.826 182.805 109.044C213.089 54.2363 246.198 20.9492 283.729 7.57258C292.194 4.55592 294.456 3.17674 289.649 3.96089C275.947 6.19802 253.638 18.4238 238.569 31.955C214.124 53.9065 195.02 81.3655 160.515 144.15L151.993 159.653L139.87 154.637C118.067 145.615 54.2052 148.447 57.5104 158.288C57.9707 159.656 54.4446 165.89 49.675 172.142C29.288 198.868 28.2978 239.15 47.5343 259.213C53.5869 265.527 58.0845 268.18 62.7356 268.18H69.3414L62.8309 261.436C53.0825 251.339 52.1621 237.275 60.1834 221.004C68.686 203.759 77.1745 198.151 96.4063 197.073C106.592 196.501 114.49 197.392 120.178 199.749L128.692 203.28L115.364 227.658C108.033 241.066 98.6795 255.566 94.577 259.884C86.4023 268.482 70.0294 275.099 56.9293 275.099C44.8984 275.099 28.9277 266.265 21.4805 255.495C14.0518 244.752 7.20425 220.213 8.51752 209.052C10.0772 195.8 5.82126 204.214 2.16504 221.608C-4.24788 252.123 4.09426 292.417 20.474 310.042C33.2952 323.838 41.3445 326.984 63.8234 326.981C81.119 326.979 85.2796 326.126 97.2198 320.127C121.651 307.855 148.749 276.764 166.095 241.099C169.291 234.528 172.513 229.111 173.252 229.062C173.994 229.011 182.884 233.661 193.009 239.392C225.848 257.979 252.592 265.901 282.22 265.818C313.304 265.733 334.832 255.386 363.782 226.62C395.91 194.693 410.618 158.701 410.416 112.503C410.239 72.4308 398.578 42.0151 375.128 20.4718C356.726 3.56651 338.375 -2.21774 312.53 0.738962ZM327.057 18.4584C322.904 18.9704 316.103 18.9704 311.949 18.4584C307.795 17.9487 311.194 17.529 319.503 17.529C327.813 17.529 331.211 17.9487 327.057 18.4584ZM296.132 22.4414C259.786 35.7281 231.426 63.826 203.215 114.503C196.421 126.708 190.45 136.284 189.946 135.785C188.725 134.572 211.004 95.2449 222.608 78.1298C234.857 60.0575 245.535 48.5605 259.53 38.3665C271.224 29.8493 294.53 19.118 300.908 19.314C302.826 19.374 300.676 20.7809 296.132 22.4414ZM351.414 22.7966C350.643 23.5623 348.637 23.6453 346.961 22.9788C345.106 22.2431 345.657 21.6965 348.365 21.5858C350.815 21.4866 352.186 22.0309 351.414 22.7966ZM307.059 74.7741C348.974 85.247 357.53 165.717 320.621 202.339C296.404 226.371 264.818 225.42 221.329 199.357C195.545 183.902 194.824 182.98 199.492 171.404C213.612 136.39 233.602 102.648 249.024 87.8094C262.663 74.6818 285.846 69.4741 307.059 74.7741ZM237.569 213.695C249.047 219.461 253.387 224.417 246.867 224.313C236.923 224.157 189.025 193.257 190.961 188.249C191.742 186.234 197.346 188.815 208.733 196.435C217.882 202.556 230.857 210.323 237.569 213.695Z" fill="white"/>
</svg>
